<?xml version="1.0" encoding="utf-8"?>
<svg version="1.1" xmlns:xlink="http://www.w3.org/1999/xlink" width="180px" height="180px" xmlns="http://www.w3.org/2000/svg">
  <g transform="matrix(1 0 0 1 -110 -678 )">
    <path d="M 110 678  L 290 678  L 290 858  L 110 858  L 110 678  " fill-rule="nonzero" fill="#cccccc" stroke="none" />
    <path d="M 123 691  L 277 691  L 277 845  L 123 845  L 123 691  " fill-rule="nonzero" fill="#ffffff" stroke="none" />
    <path d="M 217.1 732  C 209.54 732  203.6 726.06  203.6 718.5  C 203.6 710.94  209.54 705  217.1 705  C 224.66 705  230.6 710.94  230.6 718.5  C 230.6 726.06  224.66 732  217.1 732  " fill-rule="nonzero" fill="#cccccc" stroke="none" />
    <path d="M 128 841  L 128 761.25  L 164.25 725  L 215 754  L 244 746.75  L 273 754  L 273 841  L 128 841  " fill-rule="nonzero" fill="#169bd5" stroke="none" />
  </g>
</svg>