<?xml version="1.0" encoding="utf-8"?>
<svg version="1.1" xmlns:xlink="http://www.w3.org/1999/xlink" width="22px" height="19px" xmlns="http://www.w3.org/2000/svg">
  <g transform="matrix(1 0 0 1 -688 -444 )">
    <path d="M 21.2743055555556 8.6650390625  C 21.7581018518519 8.90006510416667  22 9.17838541666667  22 9.5  C 22 9.82161458333333  21.7581018518519 10.0999348958333  21.2743055555556 10.3349609375  L 4.16319444444444 18.6474609375  C 3.67939814814815 18.8824869791667  3.10648148148148 19  2.44444444444444 19  C 1.78240740740741 19  1.20949074074074 18.8824869791667  0.725694444444444 18.6474609375  C 0.241898148148148 18.4124348958333  0 18.1341145833333  0 17.8125  L 0 1.1875  C 0 0.865885416666664  0.241898148148148 0.587565104166664  0.725694444444444 0.3525390625  C 1.20949074074074 0.117513020833332  1.78240740740741 0  2.44444444444444 0  C 3.10648148148148 0  3.67939814814815 0.117513020833332  4.16319444444444 0.3525390625  L 21.2743055555556 8.6650390625  Z " fill-rule="nonzero" fill="#000000" stroke="none" transform="matrix(1 0 0 1 688 444 )" />
  </g>
</svg>