<?xml version="1.0" encoding="utf-8"?>
<svg version="1.1" xmlns:xlink="http://www.w3.org/1999/xlink" width="22px" height="19px" xmlns="http://www.w3.org/2000/svg">
  <g transform="matrix(1 0 0 1 -490 -444 )">
    <path d="M 21.2743055555556 0.3525390625  C 21.7581018518519 0.587565104166664  22 0.865885416666664  22 1.1875  L 22 17.8125  C 22 18.1341145833333  21.7581018518519 18.4124348958333  21.2743055555556 18.6474609375  C 20.7905092592593 18.8824869791667  20.2175925925926 19  19.5555555555556 19  C 18.8935185185185 19  18.3206018518519 18.8824869791667  17.8368055555556 18.6474609375  L 0.725694444444444 10.3349609375  C 0.241898148148149 10.0999348958333  0 9.82161458333333  0 9.5  C 0 9.17838541666667  0.241898148148149 8.90006510416667  0.725694444444444 8.6650390625  L 17.8368055555556 0.3525390625  C 18.3206018518519 0.117513020833332  18.8935185185185 0  19.5555555555556 0  C 20.2175925925926 0  20.7905092592593 0.117513020833332  21.2743055555556 0.3525390625  Z " fill-rule="nonzero" fill="#d7d7d7" stroke="none" transform="matrix(1 0 0 1 490 444 )" />
  </g>
</svg>