<?xml version="1.0" encoding="utf-8"?>
<svg version="1.1" xmlns:xlink="http://www.w3.org/1999/xlink" width="316px" height="316px" xmlns="http://www.w3.org/2000/svg">
  <g transform="matrix(1 0 0 1 -110 -644 )">
    <path d="M 110 644  L 426 644  L 426 960  L 110 960  L 110 644  " fill-rule="nonzero" fill="#cccccc" stroke="none" />
    <path d="M 132 666  L 404 666  L 404 938  L 132 938  L 132 666  " fill-rule="nonzero" fill="#ffffff" stroke="none" />
    <path d="M 298.02 738.8  C 284.748 738.8  274.32 728.372  274.32 715.1  C 274.32 701.828  284.748 691.4  298.02 691.4  C 311.292 691.4  321.72 701.828  321.72 715.1  C 321.72 728.372  311.292 738.8  298.02 738.8  " fill-rule="nonzero" fill="#cccccc" stroke="none" />
    <path d="M 140 930  L 140 789.2  L 204 725.2  L 293.6 776.4  L 344.8 763.6  L 396 776.4  L 396 930  L 140 930  " fill-rule="nonzero" fill="#169bd5" stroke="none" />
  </g>
</svg>